<svg xmlns="http://www.w3.org/2000/svg" data-laicon-version="15.3" viewBox="0 0 20 20"><g transform="translate(-2 -2)">
  <path d="m19.522 20.795 1.192 1.191 1.272-1.272-18.7-18.7-1.272 1.272 1.192 1.192A1.23 1.23 0 0 0 3.2 4.6v14.8a1.4 1.4 0 0 0 1.4 1.4h14.8c.04 0 .082-.002.122-.005ZM17.727 19H5V6.273l5.068 5.068-2.835 4.42h7.255L17.728 19ZM20.8 4.6v12.427l-1.8-1.8V5H8.772l-1.8-1.8h12.426a1.4 1.4 0 0 1 1.4 1.4Z" fill="#4b5563"/>
  <path d="M15.135 10.851c-.268 0-.518-.079-.726-.215l-.387-.387a1.326 1.326 0 0 1 1.113-2.047 1.326 1.326 0 1 1 0 2.65Z" fill="#4b5563"/>
</g></svg>